<mxfile host="app.diagrams.net" modified="2024-05-04T18:55:50.744Z" agent="Mozilla/5.0 (Windows NT 10.0; Win64; x64) AppleWebKit/537.36 (KHTML, like Gecko) Chrome/123.0.0.0 Safari/537.36 OPR/109.0.0.0" version="24.2.5" etag="Q6cm8oNCvwvxRFZqNlea" type="github">
  <diagram name="Страница — 1" id="TMmJGFOzL59eGs5mDznR">
    <mxGraphModel>
      <root>
        <mxCell id="0" />
        <mxCell id="1" parent="0" />
      </root>
    </mxGraphModel>
  </diagram>
</mxfile>
